<svg xmlns="http://www.w3.org/2000/svg" xmlns:xlink="http://www.w3.org/1999/xlink" width="1366" height="768" viewBox="0 0 1366 768">
  <defs>
    <filter id="Header" x="-39" y="-39" width="1998" height="218" filterUnits="userSpaceOnUse">
      <feOffset input="SourceAlpha"/>
      <feGaussianBlur stdDeviation="13" result="blur"/>
      <feFlood flood-opacity="0.161"/>
      <feComposite operator="in" in2="blur"/>
      <feComposite in="SourceGraphic"/>
    </filter>
    <filter id="Elipse_7" x="-238.5" y="506" width="518" height="518" filterUnits="userSpaceOnUse">
      <feOffset dx="1.5" dy="-3" input="SourceAlpha"/>
      <feGaussianBlur stdDeviation="3" result="blur-2"/>
      <feFlood flood-opacity="0.161"/>
      <feComposite operator="in" in2="blur-2"/>
      <feComposite in="SourceGraphic"/>
    </filter>
    <filter id="Elipse_8" x="-188.5" y="556" width="418" height="418" filterUnits="userSpaceOnUse">
      <feOffset dx="1.5" dy="-3" input="SourceAlpha"/>
      <feGaussianBlur stdDeviation="3" result="blur-3"/>
      <feFlood flood-opacity="0.161"/>
      <feComposite operator="in" in2="blur-3"/>
      <feComposite in="SourceGraphic"/>
    </filter>
    <filter id="Elipse_9" x="-138.5" y="606" width="318" height="318" filterUnits="userSpaceOnUse">
      <feOffset dx="1.5" dy="-3" input="SourceAlpha"/>
      <feGaussianBlur stdDeviation="3" result="blur-4"/>
      <feFlood flood-opacity="0.161"/>
      <feComposite operator="in" in2="blur-4"/>
      <feComposite in="SourceGraphic"/>
    </filter>
    <filter id="Elipse_10" x="-138.5" y="606" width="318" height="318" filterUnits="userSpaceOnUse">
      <feOffset dx="1.5" dy="-3" input="SourceAlpha"/>
      <feGaussianBlur stdDeviation="3" result="blur-5"/>
      <feFlood flood-opacity="0.161"/>
      <feComposite operator="in" in2="blur-5"/>
      <feComposite in="SourceGraphic"/>
    </filter>
    <filter id="Elipse_11" x="-88.5" y="656" width="218" height="218" filterUnits="userSpaceOnUse">
      <feOffset dx="1.5" dy="-3" input="SourceAlpha"/>
      <feGaussianBlur stdDeviation="3" result="blur-6"/>
      <feFlood flood-opacity="0.161"/>
      <feComposite operator="in" in2="blur-6"/>
      <feComposite in="SourceGraphic"/>
    </filter>
    <filter id="Elipse_7-2" x="1105.5" y="506" width="518" height="518" filterUnits="userSpaceOnUse">
      <feOffset dx="-1.5" dy="-3" input="SourceAlpha"/>
      <feGaussianBlur stdDeviation="3" result="blur-7"/>
      <feFlood flood-opacity="0.161"/>
      <feComposite operator="in" in2="blur-7"/>
      <feComposite in="SourceGraphic"/>
    </filter>
    <filter id="Elipse_8-2" x="1155.5" y="556" width="418" height="418" filterUnits="userSpaceOnUse">
      <feOffset dx="-1.5" dy="-3" input="SourceAlpha"/>
      <feGaussianBlur stdDeviation="3" result="blur-8"/>
      <feFlood flood-opacity="0.161"/>
      <feComposite operator="in" in2="blur-8"/>
      <feComposite in="SourceGraphic"/>
    </filter>
    <filter id="Elipse_9-2" x="1205.5" y="606" width="318" height="318" filterUnits="userSpaceOnUse">
      <feOffset dx="-1.5" dy="-3" input="SourceAlpha"/>
      <feGaussianBlur stdDeviation="3" result="blur-9"/>
      <feFlood flood-opacity="0.161"/>
      <feComposite operator="in" in2="blur-9"/>
      <feComposite in="SourceGraphic"/>
    </filter>
    <filter id="Elipse_10-2" x="1205.5" y="606" width="318" height="318" filterUnits="userSpaceOnUse">
      <feOffset dx="-1.5" dy="-3" input="SourceAlpha"/>
      <feGaussianBlur stdDeviation="3" result="blur-10"/>
      <feFlood flood-opacity="0.161"/>
      <feComposite operator="in" in2="blur-10"/>
      <feComposite in="SourceGraphic"/>
    </filter>
    <filter id="Elipse_11-2" x="1255.5" y="656" width="218" height="218" filterUnits="userSpaceOnUse">
      <feOffset dx="-1.5" dy="-3" input="SourceAlpha"/>
      <feGaussianBlur stdDeviation="3" result="blur-11"/>
      <feFlood flood-opacity="0.161"/>
      <feComposite operator="in" in2="blur-11"/>
      <feComposite in="SourceGraphic"/>
    </filter>
    <filter id="Elipse_7-3" x="1105.5" y="-247" width="518" height="518" filterUnits="userSpaceOnUse">
      <feOffset dx="-1.5" dy="3" input="SourceAlpha"/>
      <feGaussianBlur stdDeviation="3" result="blur-12"/>
      <feFlood flood-opacity="0.161"/>
      <feComposite operator="in" in2="blur-12"/>
      <feComposite in="SourceGraphic"/>
    </filter>
    <filter id="Elipse_8-3" x="1155.5" y="-197" width="418" height="418" filterUnits="userSpaceOnUse">
      <feOffset dx="-1.5" dy="3" input="SourceAlpha"/>
      <feGaussianBlur stdDeviation="3" result="blur-13"/>
      <feFlood flood-opacity="0.161"/>
      <feComposite operator="in" in2="blur-13"/>
      <feComposite in="SourceGraphic"/>
    </filter>
    <filter id="Elipse_9-3" x="1205.5" y="-147" width="318" height="318" filterUnits="userSpaceOnUse">
      <feOffset dx="-1.5" dy="3" input="SourceAlpha"/>
      <feGaussianBlur stdDeviation="3" result="blur-14"/>
      <feFlood flood-opacity="0.161"/>
      <feComposite operator="in" in2="blur-14"/>
      <feComposite in="SourceGraphic"/>
    </filter>
    <filter id="Elipse_10-3" x="1205.5" y="-147" width="318" height="318" filterUnits="userSpaceOnUse">
      <feOffset dx="-1.5" dy="3" input="SourceAlpha"/>
      <feGaussianBlur stdDeviation="3" result="blur-15"/>
      <feFlood flood-opacity="0.161"/>
      <feComposite operator="in" in2="blur-15"/>
      <feComposite in="SourceGraphic"/>
    </filter>
    <filter id="Elipse_11-3" x="1255.5" y="-97" width="218" height="218" filterUnits="userSpaceOnUse">
      <feOffset dx="-1.5" dy="3" input="SourceAlpha"/>
      <feGaussianBlur stdDeviation="3" result="blur-16"/>
      <feFlood flood-opacity="0.161"/>
      <feComposite operator="in" in2="blur-16"/>
      <feComposite in="SourceGraphic"/>
    </filter>
    <clipPath id="clip-bg-Home">
      <rect width="1366" height="768"/>
    </clipPath>
  </defs>
  <g id="bg-Home" clip-path="url(#clip-bg-Home)">
    <rect width="1366" height="768" fill="#fff"/>
    <g transform="matrix(1, 0, 0, 1, 0, 0)" filter="url(#Header)">
      <rect id="Header-2" data-name="Header" width="1920" height="140" fill="none"/>
    </g>
    <g id="Grupo_6" data-name="Grupo 6" transform="translate(-1901 228)">
      <g transform="matrix(1, 0, 0, 1, 1901, -228)" filter="url(#Elipse_7)">
        <circle id="Elipse_7-4" data-name="Elipse 7" cx="250" cy="250" r="250" transform="translate(-231 518)" fill="#008fbd" opacity="0.25"/>
      </g>
      <g transform="matrix(1, 0, 0, 1, 1901, -228)" filter="url(#Elipse_8)">
        <circle id="Elipse_8-4" data-name="Elipse 8" cx="200" cy="200" r="200" transform="translate(-181 568)" fill="#008fbd" opacity="0.5"/>
      </g>
      <g transform="matrix(1, 0, 0, 1, 1901, -228)" filter="url(#Elipse_9)">
        <circle id="Elipse_9-4" data-name="Elipse 9" cx="150" cy="150" r="150" transform="translate(-131 618)" fill="#008fbd" opacity="0.51"/>
      </g>
      <g transform="matrix(1, 0, 0, 1, 1901, -228)" filter="url(#Elipse_10)">
        <circle id="Elipse_10-4" data-name="Elipse 10" cx="150" cy="150" r="150" transform="translate(-131 618)" fill="#008fbd" opacity="0.75"/>
      </g>
      <g transform="matrix(1, 0, 0, 1, 1901, -228)" filter="url(#Elipse_11)">
        <circle id="Elipse_11-4" data-name="Elipse 11" cx="100" cy="100" r="100" transform="translate(-81 668)" fill="#008fbd"/>
      </g>
    </g>
    <g id="Grupo_8" data-name="Grupo 8" transform="translate(-554 228)">
      <g transform="matrix(1, 0, 0, 1, 554, -228)" filter="url(#Elipse_7-2)">
        <circle id="Elipse_7-5" data-name="Elipse 7" cx="250" cy="250" r="250" transform="translate(1116 518)" fill="#1ab7ea" opacity="0.25"/>
      </g>
      <g transform="matrix(1, 0, 0, 1, 554, -228)" filter="url(#Elipse_8-2)">
        <circle id="Elipse_8-5" data-name="Elipse 8" cx="200" cy="200" r="200" transform="translate(1166 568)" fill="#1ab7ea" opacity="0.5"/>
      </g>
      <g transform="matrix(1, 0, 0, 1, 554, -228)" filter="url(#Elipse_9-2)">
        <circle id="Elipse_9-5" data-name="Elipse 9" cx="150" cy="150" r="150" transform="translate(1216 618)" fill="#1ab7ea" opacity="0.51"/>
      </g>
      <g transform="matrix(1, 0, 0, 1, 554, -228)" filter="url(#Elipse_10-2)">
        <circle id="Elipse_10-5" data-name="Elipse 10" cx="150" cy="150" r="150" transform="translate(1216 618)" fill="#1ab7ea" opacity="0.75"/>
      </g>
      <g transform="matrix(1, 0, 0, 1, 554, -228)" filter="url(#Elipse_11-2)">
        <circle id="Elipse_11-5" data-name="Elipse 11" cx="100" cy="100" r="100" transform="translate(1266 668)" fill="#1ab7ea"/>
      </g>
    </g>
    <g id="Grupo_7" data-name="Grupo 7" transform="translate(-554 -531)">
      <g transform="matrix(1, 0, 0, 1, 554, 531)" filter="url(#Elipse_7-3)">
        <circle id="Elipse_7-6" data-name="Elipse 7" cx="250" cy="250" r="250" transform="translate(1116 -241)" fill="#03eac6" opacity="0.25"/>
      </g>
      <g transform="matrix(1, 0, 0, 1, 554, 531)" filter="url(#Elipse_8-3)">
        <circle id="Elipse_8-6" data-name="Elipse 8" cx="200" cy="200" r="200" transform="translate(1166 -191)" fill="#03eac6" opacity="0.5"/>
      </g>
      <g transform="matrix(1, 0, 0, 1, 554, 531)" filter="url(#Elipse_9-3)">
        <circle id="Elipse_9-6" data-name="Elipse 9" cx="150" cy="150" r="150" transform="translate(1216 -141)" fill="#03eac6" opacity="0.51"/>
      </g>
      <g transform="matrix(1, 0, 0, 1, 554, 531)" filter="url(#Elipse_10-3)">
        <circle id="Elipse_10-6" data-name="Elipse 10" cx="150" cy="150" r="150" transform="translate(1216 -141)" fill="#03eac6" opacity="0.75"/>
      </g>
      <g transform="matrix(1, 0, 0, 1, 554, 531)" filter="url(#Elipse_11-3)">
        <circle id="Elipse_11-6" data-name="Elipse 11" cx="100" cy="100" r="100" transform="translate(1266 -91)" fill="#03eac6"/>
      </g>
    </g>
  </g>
</svg>
