<svg xmlns="http://www.w3.org/2000/svg" xmlns:xlink="http://www.w3.org/1999/xlink" width="1366" height="768" viewBox="0 0 1366 768">
  <defs>
    <linearGradient id="linear-gradient" x1="0.5" x2="0.5" y2="1" gradientUnits="objectBoundingBox">
      <stop offset="0" stop-color="#03eac6" stop-opacity="0.302"/>
      <stop offset="1" stop-color="#008fbd" stop-opacity="0.239"/>
    </linearGradient>
    <clipPath id="clip-path">
      <rect width="149" height="103" fill="none"/>
    </clipPath>
    <clipPath id="clip-path-2">
      <rect width="94" height="81" fill="none"/>
    </clipPath>
    <linearGradient id="linear-gradient-2" y1="0.5" x2="1" y2="0.5" gradientUnits="objectBoundingBox">
      <stop offset="0" stop-color="#03eac6" stop-opacity="0.2"/>
      <stop offset="1" stop-color="#008fbd" stop-opacity="0.302"/>
    </linearGradient>
    <filter id="Retângulo_9" x="213.5" y="574.5" width="162" height="162" filterUnits="userSpaceOnUse">
      <feOffset dy="6" input="SourceAlpha"/>
      <feGaussianBlur stdDeviation="7.5" result="blur"/>
      <feFlood flood-opacity="0.161"/>
      <feComposite operator="in" in2="blur"/>
      <feComposite in="SourceGraphic"/>
    </filter>
    <clipPath id="clip-bg-WhoWeAre">
      <rect width="1366" height="768"/>
    </clipPath>
  </defs>
  <g id="bg-WhoWeAre" clip-path="url(#clip-bg-WhoWeAre)">
    <rect width="1366" height="768" fill="#fff"/>
    <rect id="Retângulo_8" data-name="Retângulo 8" width="1531" height="450" rx="100" transform="translate(-326.181 -453.164) rotate(16)" fill="url(#linear-gradient)"/>
    <g id="Repetição_de_grade_1" data-name="Repetição de grade 1" transform="translate(1003 21)" opacity="0.51" clip-path="url(#clip-path)">
      <g transform="translate(-101 204)">
        <circle id="Elipse_4" data-name="Elipse 4" cx="5" cy="5" r="5" transform="translate(101 -204)" fill="rgba(29,62,106,0.46)"/>
      </g>
      <g transform="translate(-76 204)">
        <circle id="Elipse_4-2" data-name="Elipse 4" cx="5" cy="5" r="5" transform="translate(101 -204)" fill="rgba(29,62,106,0.46)"/>
      </g>
      <g transform="translate(-51 204)">
        <circle id="Elipse_4-3" data-name="Elipse 4" cx="5" cy="5" r="5" transform="translate(101 -204)" fill="rgba(29,62,106,0.46)"/>
      </g>
      <g transform="translate(-26 204)">
        <circle id="Elipse_4-4" data-name="Elipse 4" cx="5" cy="5" r="5" transform="translate(101 -204)" fill="rgba(29,62,106,0.46)"/>
      </g>
      <g transform="translate(-1 204)">
        <circle id="Elipse_4-5" data-name="Elipse 4" cx="5" cy="5" r="5" transform="translate(101 -204)" fill="rgba(29,62,106,0.46)"/>
      </g>
      <g transform="translate(24 204)">
        <circle id="Elipse_4-6" data-name="Elipse 4" cx="5" cy="5" r="5" transform="translate(101 -204)" fill="rgba(29,62,106,0.46)"/>
      </g>
      <g transform="translate(-101 224)">
        <circle id="Elipse_4-7" data-name="Elipse 4" cx="5" cy="5" r="5" transform="translate(101 -204)" fill="rgba(29,62,106,0.46)"/>
      </g>
      <g transform="translate(-76 224)">
        <circle id="Elipse_4-8" data-name="Elipse 4" cx="5" cy="5" r="5" transform="translate(101 -204)" fill="rgba(29,62,106,0.46)"/>
      </g>
      <g transform="translate(-51 224)">
        <circle id="Elipse_4-9" data-name="Elipse 4" cx="5" cy="5" r="5" transform="translate(101 -204)" fill="rgba(29,62,106,0.46)"/>
      </g>
      <g transform="translate(-26 224)">
        <circle id="Elipse_4-10" data-name="Elipse 4" cx="5" cy="5" r="5" transform="translate(101 -204)" fill="rgba(29,62,106,0.46)"/>
      </g>
      <g transform="translate(-1 224)">
        <circle id="Elipse_4-11" data-name="Elipse 4" cx="5" cy="5" r="5" transform="translate(101 -204)" fill="rgba(29,62,106,0.46)"/>
      </g>
      <g transform="translate(24 224)">
        <circle id="Elipse_4-12" data-name="Elipse 4" cx="5" cy="5" r="5" transform="translate(101 -204)" fill="rgba(29,62,106,0.46)"/>
      </g>
      <g transform="translate(-101 244)">
        <circle id="Elipse_4-13" data-name="Elipse 4" cx="5" cy="5" r="5" transform="translate(101 -204)" fill="rgba(29,62,106,0.46)"/>
      </g>
      <g transform="translate(-76 244)">
        <circle id="Elipse_4-14" data-name="Elipse 4" cx="5" cy="5" r="5" transform="translate(101 -204)" fill="rgba(29,62,106,0.46)"/>
      </g>
      <g transform="translate(-51 244)">
        <circle id="Elipse_4-15" data-name="Elipse 4" cx="5" cy="5" r="5" transform="translate(101 -204)" fill="rgba(29,62,106,0.46)"/>
      </g>
      <g transform="translate(-26 244)">
        <circle id="Elipse_4-16" data-name="Elipse 4" cx="5" cy="5" r="5" transform="translate(101 -204)" fill="rgba(29,62,106,0.46)"/>
      </g>
      <g transform="translate(-1 244)">
        <circle id="Elipse_4-17" data-name="Elipse 4" cx="5" cy="5" r="5" transform="translate(101 -204)" fill="rgba(29,62,106,0.46)"/>
      </g>
      <g transform="translate(24 244)">
        <circle id="Elipse_4-18" data-name="Elipse 4" cx="5" cy="5" r="5" transform="translate(101 -204)" fill="rgba(29,62,106,0.46)"/>
      </g>
      <g transform="translate(-101 264)">
        <circle id="Elipse_4-19" data-name="Elipse 4" cx="5" cy="5" r="5" transform="translate(101 -204)" fill="rgba(29,62,106,0.46)"/>
      </g>
      <g transform="translate(-76 264)">
        <circle id="Elipse_4-20" data-name="Elipse 4" cx="5" cy="5" r="5" transform="translate(101 -204)" fill="rgba(29,62,106,0.46)"/>
      </g>
      <g transform="translate(-51 264)">
        <circle id="Elipse_4-21" data-name="Elipse 4" cx="5" cy="5" r="5" transform="translate(101 -204)" fill="rgba(29,62,106,0.46)"/>
      </g>
      <g transform="translate(-26 264)">
        <circle id="Elipse_4-22" data-name="Elipse 4" cx="5" cy="5" r="5" transform="translate(101 -204)" fill="rgba(29,62,106,0.46)"/>
      </g>
      <g transform="translate(-1 264)">
        <circle id="Elipse_4-23" data-name="Elipse 4" cx="5" cy="5" r="5" transform="translate(101 -204)" fill="rgba(29,62,106,0.46)"/>
      </g>
      <g transform="translate(24 264)">
        <circle id="Elipse_4-24" data-name="Elipse 4" cx="5" cy="5" r="5" transform="translate(101 -204)" fill="rgba(29,62,106,0.46)"/>
      </g>
      <g transform="translate(-101 284)">
        <circle id="Elipse_4-25" data-name="Elipse 4" cx="5" cy="5" r="5" transform="translate(101 -204)" fill="rgba(29,62,106,0.46)"/>
      </g>
      <g transform="translate(-76 284)">
        <circle id="Elipse_4-26" data-name="Elipse 4" cx="5" cy="5" r="5" transform="translate(101 -204)" fill="rgba(29,62,106,0.46)"/>
      </g>
      <g transform="translate(-51 284)">
        <circle id="Elipse_4-27" data-name="Elipse 4" cx="5" cy="5" r="5" transform="translate(101 -204)" fill="rgba(29,62,106,0.46)"/>
      </g>
      <g transform="translate(-26 284)">
        <circle id="Elipse_4-28" data-name="Elipse 4" cx="5" cy="5" r="5" transform="translate(101 -204)" fill="rgba(29,62,106,0.46)"/>
      </g>
      <g transform="translate(-1 284)">
        <circle id="Elipse_4-29" data-name="Elipse 4" cx="5" cy="5" r="5" transform="translate(101 -204)" fill="rgba(29,62,106,0.46)"/>
      </g>
      <g transform="translate(24 284)">
        <circle id="Elipse_4-30" data-name="Elipse 4" cx="5" cy="5" r="5" transform="translate(101 -204)" fill="rgba(29,62,106,0.46)"/>
      </g>
    </g>
    <g id="Repetição_de_grade_2" data-name="Repetição de grade 2" transform="translate(306 551)" opacity="0.51" clip-path="url(#clip-path-2)">
      <g transform="translate(-101 204)">
        <circle id="Elipse_4-31" data-name="Elipse 4" cx="5" cy="5" r="5" transform="translate(101 -204)" fill="rgba(29,62,106,0.46)"/>
      </g>
      <g transform="translate(-76 204)">
        <circle id="Elipse_4-32" data-name="Elipse 4" cx="5" cy="5" r="5" transform="translate(101 -204)" fill="rgba(29,62,106,0.46)"/>
      </g>
      <g transform="translate(-51 204)">
        <circle id="Elipse_4-33" data-name="Elipse 4" cx="5" cy="5" r="5" transform="translate(101 -204)" fill="rgba(29,62,106,0.46)"/>
      </g>
      <g transform="translate(-26 204)">
        <circle id="Elipse_4-34" data-name="Elipse 4" cx="5" cy="5" r="5" transform="translate(101 -204)" fill="rgba(29,62,106,0.46)"/>
      </g>
      <g transform="translate(-101 224)">
        <circle id="Elipse_4-35" data-name="Elipse 4" cx="5" cy="5" r="5" transform="translate(101 -204)" fill="rgba(29,62,106,0.46)"/>
      </g>
      <g transform="translate(-76 224)">
        <circle id="Elipse_4-36" data-name="Elipse 4" cx="5" cy="5" r="5" transform="translate(101 -204)" fill="rgba(29,62,106,0.46)"/>
      </g>
      <g transform="translate(-51 224)">
        <circle id="Elipse_4-37" data-name="Elipse 4" cx="5" cy="5" r="5" transform="translate(101 -204)" fill="rgba(29,62,106,0.46)"/>
      </g>
      <g transform="translate(-26 224)">
        <circle id="Elipse_4-38" data-name="Elipse 4" cx="5" cy="5" r="5" transform="translate(101 -204)" fill="rgba(29,62,106,0.46)"/>
      </g>
      <g transform="translate(-101 244)">
        <circle id="Elipse_4-39" data-name="Elipse 4" cx="5" cy="5" r="5" transform="translate(101 -204)" fill="rgba(29,62,106,0.46)"/>
      </g>
      <g transform="translate(-76 244)">
        <circle id="Elipse_4-40" data-name="Elipse 4" cx="5" cy="5" r="5" transform="translate(101 -204)" fill="rgba(29,62,106,0.46)"/>
      </g>
      <g transform="translate(-51 244)">
        <circle id="Elipse_4-41" data-name="Elipse 4" cx="5" cy="5" r="5" transform="translate(101 -204)" fill="rgba(29,62,106,0.46)"/>
      </g>
      <g transform="translate(-26 244)">
        <circle id="Elipse_4-42" data-name="Elipse 4" cx="5" cy="5" r="5" transform="translate(101 -204)" fill="rgba(29,62,106,0.46)"/>
      </g>
      <g transform="translate(-101 264)">
        <circle id="Elipse_4-43" data-name="Elipse 4" cx="5" cy="5" r="5" transform="translate(101 -204)" fill="rgba(29,62,106,0.46)"/>
      </g>
      <g transform="translate(-76 264)">
        <circle id="Elipse_4-44" data-name="Elipse 4" cx="5" cy="5" r="5" transform="translate(101 -204)" fill="rgba(29,62,106,0.46)"/>
      </g>
      <g transform="translate(-51 264)">
        <circle id="Elipse_4-45" data-name="Elipse 4" cx="5" cy="5" r="5" transform="translate(101 -204)" fill="rgba(29,62,106,0.46)"/>
      </g>
      <g transform="translate(-26 264)">
        <circle id="Elipse_4-46" data-name="Elipse 4" cx="5" cy="5" r="5" transform="translate(101 -204)" fill="rgba(29,62,106,0.46)"/>
      </g>
      <g transform="translate(-101 284)">
        <circle id="Elipse_4-47" data-name="Elipse 4" cx="5" cy="5" r="5" transform="translate(101 -204)" fill="rgba(29,62,106,0.46)"/>
      </g>
      <g transform="translate(-76 284)">
        <circle id="Elipse_4-48" data-name="Elipse 4" cx="5" cy="5" r="5" transform="translate(101 -204)" fill="rgba(29,62,106,0.46)"/>
      </g>
      <g transform="translate(-51 284)">
        <circle id="Elipse_4-49" data-name="Elipse 4" cx="5" cy="5" r="5" transform="translate(101 -204)" fill="rgba(29,62,106,0.46)"/>
      </g>
      <g transform="translate(-26 284)">
        <circle id="Elipse_4-50" data-name="Elipse 4" cx="5" cy="5" r="5" transform="translate(101 -204)" fill="rgba(29,62,106,0.46)"/>
      </g>
    </g>
    <g transform="matrix(1, 0, 0, 1, 0, 0)" filter="url(#Retângulo_9)">
      <rect id="Retângulo_9-2" data-name="Retângulo 9" width="117" height="117" rx="15" transform="translate(236 591)" fill="url(#linear-gradient-2)"/>
    </g>
  </g>
</svg>
