<svg xmlns="http://www.w3.org/2000/svg" xmlns:xlink="http://www.w3.org/1999/xlink" width="1366" height="768" viewBox="0 0 1366 768">
  <defs>
    <linearGradient id="linear-gradient" x1="0.549" y1="0.439" x2="1" gradientUnits="objectBoundingBox">
      <stop offset="0" stop-color="#03eac6" stop-opacity="0.129"/>
      <stop offset="1" stop-color="#03eac6" stop-opacity="0.286"/>
    </linearGradient>
    <linearGradient id="linear-gradient-2" x1="0.092" y1="1" x2="0.935" gradientUnits="objectBoundingBox">
      <stop offset="0" stop-color="#1ab7ea" stop-opacity="0.231"/>
      <stop offset="1" stop-color="#1ab7ea" stop-opacity="0.929"/>
    </linearGradient>
    <linearGradient id="linear-gradient-3" x1="0.191" y1="0.775" x2="0.808" y2="0.189" gradientUnits="objectBoundingBox">
      <stop offset="0" stop-color="#fb0" stop-opacity="0.439"/>
      <stop offset="1" stop-color="red" stop-opacity="0.388"/>
    </linearGradient>
    <linearGradient id="linear-gradient-4" x1="0.5" x2="0.5" y2="1" gradientUnits="objectBoundingBox">
      <stop offset="0" stop-color="#03eac6" stop-opacity="0.42"/>
      <stop offset="1" stop-color="#00aa8f" stop-opacity="0.231"/>
    </linearGradient>
    <linearGradient id="linear-gradient-5" x1="0.092" y1="1" x2="0.935" gradientUnits="objectBoundingBox">
      <stop offset="0" stop-color="#f0d" stop-opacity="0.149"/>
      <stop offset="1" stop-color="#f0e" stop-opacity="0.588"/>
    </linearGradient>
    <linearGradient id="linear-gradient-6" x1="0.5" y1="0" x2="0.5" y2="1" xlink:href="#linear-gradient"/>
    <clipPath id="clip-bg-works">
      <rect width="1366" height="768"/>
    </clipPath>
  </defs>
  <g id="bg-works" clip-path="url(#clip-bg-works)">
    <rect width="1366" height="768" fill="#fff"/>
    <g id="Grupo_11" data-name="Grupo 11" transform="translate(0 49)">
      <path id="Caminho_3" data-name="Caminho 3" d="M2832,6153.652s-122.926-65.915-288.49,21.792c-93.232,49.39-219.79,55.861-261.669,119.747-45.676,69.677,14.186,208.676,46.568,221.753,115.312,46.568,119.747,40.3,121.964,157.828S2832,6734.646,2832,6734.646Z" transform="translate(-1466 -6030)" fill="url(#linear-gradient)"/>
      <rect id="Ret창ngulo_10" data-name="Ret창ngulo 10" width="95" height="95" rx="15" transform="translate(1186 158)" fill="url(#linear-gradient-2)"/>
      <ellipse id="Elipse_12" data-name="Elipse 12" cx="49" cy="50.5" rx="49" ry="50.5" transform="translate(1006 253)" fill="url(#linear-gradient-3)"/>
      <path id="Caminho_4" data-name="Caminho 4" d="M125,0V125H0Z" transform="translate(1339.411 386.743) rotate(105)" fill="url(#linear-gradient-4)"/>
      <rect id="Ret창ngulo_11" data-name="Ret창ngulo 11" width="95" height="95" rx="20" transform="translate(1107.682 521.559) rotate(34)" fill="url(#linear-gradient-5)"/>
    </g>
    <path id="Caminho_5" data-name="Caminho 5" d="M1458.754,6634.4,1417,6839.406s-32.963,73.1,19.958,97.869c16.3,7.627,61.169,18.127,82.049,13.305,226.188-15.523,135.27-177.4,192.769-218.79,106.6-80.577-55.021-177.795-102.739-147.388-63.073,65.028-150.286,50-150.286,50l131.564-242.2" transform="translate(-1473 -6506.204)" fill="url(#linear-gradient-6)"/>
  </g>
</svg>
